<?xml version="1.0" standalone="no"?>
<!DOCTYPE svg PUBLIC "-//W3C//DTD SVG 1.1//EN" "http://www.w3.org/Graphics/SVG/1.1/DTD/svg11.dtd" >
<svg xmlns="http://www.w3.org/2000/svg">
<metadata>
Created by FontForge 20120731 at Thu Apr 14 15:00:33 2016
 By admin
</metadata>
<defs>
<font id="iconfont" horiz-adv-x="1024" >
  <font-face 
    font-family="iconfont"
    font-weight="500"
    font-stretch="normal"
    units-per-em="1024"
    panose-1="2 0 6 3 0 0 0 0 0 0"
    ascent="896"
    descent="-128"
    x-height="792"
    bbox="0 -212 1275 896"
    underline-thickness="50"
    underline-position="-100"
    unicode-range="U+0078-E62C"
  />
<missing-glyph horiz-adv-x="374" 
d="M34 0v682h272v-682h-272zM68 34h204v614h-204v-614z" />
    <glyph glyph-name=".notdef" horiz-adv-x="374" 
d="M34 0v682h272v-682h-272zM68 34h204v614h-204v-614z" />
    <glyph glyph-name=".null" horiz-adv-x="0" 
 />
    <glyph glyph-name="nonmarkingreturn" horiz-adv-x="341" 
 />
    <glyph glyph-name="x" unicode="x" horiz-adv-x="1001" 
d="M281 543q-27 -1 -53 -1h-83q-18 0 -36.5 -6t-32.5 -18.5t-23 -32t-9 -45.5v-76h912v41q0 16 -0.5 30t-0.5 18q0 13 -5 29t-17 29.5t-31.5 22.5t-49.5 9h-133v-97h-438v97zM955 310v-52q0 -23 0.5 -52t0.5 -58t-10.5 -47.5t-26 -30t-33 -16t-31.5 -4.5q-14 -1 -29.5 -0.5
t-29.5 0.5h-32l-45 128h-439l-44 -128h-29h-34q-20 0 -45 1q-25 0 -41 9.5t-25.5 23t-13.5 29.5t-4 30v167h911zM163 247q-12 0 -21 -8.5t-9 -21.5t9 -21.5t21 -8.5q13 0 22 8.5t9 21.5t-9 21.5t-22 8.5zM316 123q-8 -26 -14 -48q-5 -19 -10.5 -37t-7.5 -25t-3 -15t1 -14.5
t9.5 -10.5t21.5 -4h37h67h81h80h64h36q23 0 34 12t2 38q-5 13 -9.5 30.5t-9.5 34.5q-5 19 -11 39h-368zM336 498v228q0 11 2.5 23t10 21.5t20.5 15.5t34 6h188q31 0 51.5 -14.5t20.5 -52.5v-227h-327z" />
    <glyph glyph-name="uniE600" unicode="&#xe600;" horiz-adv-x="1025" 
d="M1020 227q0 15 -13 21.5t-25.5 0t-12.5 -21.5v-134v-23q0 -5 -2 -17.5t-6.5 -17.5t-13.5 -10.5t-23 -6.5q-31 -3 -67.5 -3t-81 1.5t-68.5 1.5h-595q-2 0 -6 -0.5t-7.5 -0.5t-6.5 1q-16 3 -24.5 12.5t-10.5 19.5t-2 27v150q0 15 -12.5 21.5t-25 0t-12.5 -21.5
q0 -14 -2 -40t-2.5 -46.5t0 -47t5.5 -46.5t14.5 -38t27 -29t42.5 -13q30 -3 64 -3t75.5 1.5t63.5 1.5q70 0 199.5 -2.5t235.5 -2.5t200 5q26 1 45 11.5t28.5 28.5t15.5 38t6.5 47t0 47.5t-2 47.5t-1.5 40zM266 225l488 487q1 -35 4 -106.5t4 -106.5q1 -15 14 -21.5t25.5 0
t11.5 21.5q-9 185 -11 272q0 10 -7 17t-17 7q-46 2 -136 5t-136 5q-15 1 -21.5 -11t0 -25t21.5 -14q36 -1 107 -4t106 -4l-487 -488q-12 -10 -7.5 -24t17 -17t24.5 7z" />
    <glyph glyph-name="uniE601" unicode="&#xe601;" 
d="M753 492q46 0 47 1q3 0 6 3l51 51q3 3 3.5 6t-1.5 5l-60 60q-1 2 -4.5 1.5t-6.5 -3.5l-51 -51q-3 -3 -3 -6q-1 -2 -1 -51q-75 56 -167 69v79h31q4 0 6.5 1.5t2.5 4.5v85q0 3 -2.5 4.5t-6.5 1.5h-169q-4 0 -6.5 -1.5t-2.5 -4.5v-85q0 -3 2.5 -4.5t6.5 -1.5h30v-79
q-134 -20 -224.5 -123.5t-90.5 -241.5q0 -100 49.5 -185t134.5 -134.5t185.5 -49.5t185.5 49.5t134.5 134.5t49.5 185q0 82 -34.5 155t-94.5 125zM512.5 -100q-129.5 0 -221 91.5t-91.5 220.5t91.5 221t221 92t221 -92t91.5 -221t-91.5 -220.5t-221 -91.5zM661 394
l-166 -167q-7 -7 -7 -16t6.5 -16t16 -7t15.5 7l167 167q7 7 7 16t-6.5 16t-16 7t-16.5 -7z" />
    <glyph glyph-name="uniE602" unicode="&#xe602;" 
d="M623 476v256h-255v-256h-256l389 -447l378 447h-256zM943 -163h-895v256h128v-128h639v128h128v-256z" />
    <glyph glyph-name="uniE603" unicode="&#xe603;" 
d="M448 656q0 20 14 34t34 14t34 -14t14 -34v-240h80q20 0 34 -14t14 -34t-14 -34t-34 -14h-128q-20 0 -34 14t-14 34q0 7 3 16q-3 9 -3 16v256zM1024 384q0 -139 -68.5 -257t-186.5 -186.5t-257 -68.5t-257 68.5t-186.5 186.5t-68.5 257t68.5 257t186.5 186.5t257 68.5
q164 0 297 -96l-2 -2q16 -4 26.5 -17t10.5 -29q0 -20 -14 -34t-34 -14q-25 0 -40 22l-2 -4q-109 78 -242 78q-172 0 -294 -122t-122 -294t122 -294t294 -122t294 122t122 294h3q-3 9 -3 16q0 20 14 34t34 14t34 -14t14 -34q0 -7 -3 -16h3z" />
    <glyph glyph-name="uniE604" unicode="&#xe604;" 
d="M509 896q-104 0 -198 -40.5t-162 -108.5t-108.5 -162t-40.5 -198t40.5 -198t108.5 -162t162 -108.5t198 -40.5t198 40.5t162 108.5t108.5 162t40.5 198t-40.5 198t-108.5 162t-162 108.5t-198 40.5zM689 432l-143 143v-479h-73v479l-143 -143l-52 51l231 231l231 -231z
" />
    <glyph glyph-name="uniE605" unicode="&#xe605;" 
d="M512 -128q-139 0 -257 68.5t-186.5 186.5t-68.5 257t68.5 257t186.5 186.5t257 68.5t257 -68.5t186.5 -186.5t68.5 -257t-68.5 -257t-186.5 -186.5t-257 -68.5zM560 656q0 20 -14 34t-34 14t-34 -14t-14 -34v-352q0 -20 14 -34t34 -14t34 14t14 34v352zM512 160
q-20 0 -34 -14t-14 -34t14 -34t34 -14t34 14t14 34t-14 34t-34 14z" />
    <glyph glyph-name="uniE606" unicode="&#xe606;" 
d="M327 563q-15 0 -26.5 -8.5t-11.5 -22.5t11.5 -23t26.5 -9q14 0 23 9t9 23t-9 22.5t-23 8.5zM586 380q-10 0 -18 -7.5t-8 -17t8 -17.5t18 -8q14 0 22.5 7.5t8.5 17.5t-8.5 17.5t-22.5 7.5zM724 380q-9 0 -17 -7.5t-8 -17t8 -17.5t17 -8q14 0 23 7.5t9 17.5t-9 17.5
t-23 7.5zM504 500q14 0 22.5 9t8.5 23t-8.5 22.5t-22.5 8.5q-15 0 -26.5 -8.5t-11.5 -22.5t11.5 -23t26.5 -9zM513 885q-103 0 -196.5 -40t-161 -107.5t-107.5 -161t-40 -196t40 -196t107.5 -161.5t161 -108t196.5 -40t196.5 40t161 108t107.5 161.5t40 196t-40 196
t-107.5 161t-161 107.5t-196.5 40zM409 241q-24 0 -88 13l-88 -44l25 76q-101 70 -101 170q0 90 74 152.5t178 62.5q93 0 165.5 -50.5t89.5 -126.5q-14 1 -25 1q-89 0 -151.5 -58.5t-62.5 -141.5q0 -26 8 -53q-13 -1 -24 -1zM781 153l19 -63l-69 38q-50 -13 -76 -13
q-89 0 -151.5 53.5t-62.5 129.5t62.5 129.5t151.5 53.5q86 0 150.5 -54t64.5 -129q0 -79 -89 -145z" />
    <glyph glyph-name="uniE607" unicode="&#xe607;" horiz-adv-x="1293" 
d="M808 814q-94 0 -180.5 -37t-149 -99t-99.5 -148.5t-37 -181.5t37 -181t99.5 -148.5t149 -99.5t181 -37t181 37t149 99.5t99.5 148.5t37 181t-37 181.5t-99.5 148.5t-149 99t-181.5 37zM808 -36q-104 0 -192.5 51.5t-140 140t-51.5 192.5t51.5 193t140 140.5t193 51.5
t193 -51.5t140 -140.5t51.5 -193t-51.5 -192.5t-140 -140t-193.5 -51.5zM695 858v23h-686v-104h501q85 59 185 81zM386 655h-377v-105h318q23 55 59 105zM286 348q0 41 6 80h-283v-104h278q-1 13 -1 24zM307 202h-298v-104h341q-27 49 -43 104zM9 -24v-104h585
q-85 38 -152 104h-433zM960 430h-60l79 139q8 15 7.5 26t-10.5 18q-4 2 -9.5 3.5t-11.5 0t-12.5 -6.5t-11.5 -14l-93 -166h-59l-95 171q-8 15 -19.5 16t-21.5 -5t-11 -18t6 -26l79 -138h-60q-18 0 -25 -6.5t-7 -21t6.5 -21t25.5 -6.5h122v-79h-99q-18 0 -25 -6.5t-7 -21
t6.5 -21t25.5 -6.5h99v-131q0 -14 6.5 -22.5t22.5 -8.5t23 8t7 23v131h99q17 0 24.5 6.5t7.5 21t-7 21t-25 6.5h-99v79h122q17 0 24.5 6.5t7.5 21t-7 21t-25 6.5z" />
    <glyph glyph-name="uniE608" unicode="&#xe608;" 
d="M511 896q-104 0 -198.5 -40.5t-163 -109t-109 -163t-40.5 -198.5t40.5 -198.5t109 -163t163 -108.5t198.5 -40t198.5 40t163 108.5t108.5 163t40 198.5t-40 198.5t-108.5 163t-163 109t-198.5 40.5zM228 102l54 190l135 -136zM431 170l-136 135l298 297l135 -135z
M782 521l-41 -40l-135 135l41 41q11 11 26.5 11.5t25.5 -10.5l85 -84q10 -11 9.5 -26t-11.5 -27z" />
    <glyph glyph-name="uniE609" unicode="&#xe609;" horiz-adv-x="1171" 
d="M936 -128q-97 0 -165.5 68t-68.5 164.5t68.5 164.5t165.5 68t165.5 -68t68.5 -164.5t-68.5 -164.5t-165.5 -68zM1023 196q4 8 4 13.5t-5 9.5q-3 2 -5.5 2.5t-5.5 -0.5t-6.5 -3.5t-5.5 -7.5l-48 -86h-30l-49 89q-4 8 -10 8.5t-11 -3t-5.5 -9.5t3.5 -13l40 -72h-31
q-9 0 -12.5 -3.5t-3.5 -11t3.5 -10.5t13.5 -3h62v-42h-51q-9 0 -12.5 -3t-3.5 -10.5t3.5 -11t13.5 -3.5h50v-68q0 -7 3.5 -11.5t11.5 -4.5t11.5 4t3.5 12v68h51q9 0 12.5 3.5t3.5 11t-3.5 10.5t-12.5 3h-51v42h62q9 0 13 3t4 10.5t-3.5 11t-12.5 3.5h-31zM655 105
q0 -112 73 -197h-667q-25 0 -43 18.5t-18 43.5q0 122 55 227.5t150 174.5q17 14 36.5 13t32.5 -11.5t35 -26.5t44 -31t58.5 -26t80.5 -11q43 0 79 8t58 20t40.5 26t30.5 26t24 19t25.5 5.5t29.5 -13.5q3 -2 8 -6t7 -6q-64 -41 -101.5 -108t-37.5 -145zM491.5 341
q-114.5 0 -195.5 81t-81 196t81 196.5t195.5 81.5t195.5 -81.5t81 -196.5t-81 -196t-195.5 -81z" />
    <glyph glyph-name="uniE60A" unicode="&#xe60a;" 
d="M624 448q-28 10 -124 10q-97 0 -121 -12q-45 -24 -73 -66t-28 -86q0 -72 68.5 -123t165.5 -51t165.5 51.5t68.5 122.5q0 48 -33 89.5t-89 64.5zM414 560q10 -12 14 -14q6 -3 21 -3l101 -1h4q10 0 16 1q1 0 2.5 1t2.5 1q12 6 20 18q23 32 38 68q4 7 2 11q-2 5 -14 5h-10
q-37 0 -86 -19q-1 0 -3 -0.5t-3 -1.5q-36 -13 -52 -13h-5q-12 1 -47 14q-4 3 -7 3q-21 9 -34 9h-5v-1q0 -1 2 -8q21 -40 43 -70zM512 890q-103 0 -196.5 -40t-161.5 -108t-108 -161.5t-40 -196.5t40 -196.5t108 -161.5t161.5 -108t196.5 -40t196.5 40t161.5 108t108 161.5
t40 196.5t-40 196.5t-108 161.5t-161.5 108t-196.5 40zM343 664.5q8 8.5 24 8.5q17 0 47 -13l7 -4q31 -13 41 -13h3q17 0 47 13q1 1 3 1.5t3 1.5q56 22 101 22h13q29 -2 37 -21q5 -14 -2 -32q-19 -44 -43 -80q-15 -21 -33 -30q-2 -1 -9 -4q-8 -2 -23 -2h-5l-108 1
q-22 0 -34 6q-13 7 -25 24q-24 35 -46 82q-5 12 -5 20q-1 11 7 19.5zM758 213q-22 -37 -59 -65q-77 -60 -187 -60t-187 60q-37 28 -59 65q-22 40 -22 81q0 54 33 103q32 47 85 77q30 16 136 16q107 0 137 -13q66 -27 104 -76t38 -107q2 -42 -19 -81z" />
    <glyph glyph-name="uniE60B" unicode="&#xe60b;" 
d="M366 587h316q34 0 55 25q61 73 71 129q10 65 -20.5 96.5t-108.5 31.5q-30 0 -48 -7t-25.5 -17.5t-11.5 -21t-9.5 -19t-16.5 -10.5q-14 -2 -22.5 8t-22.5 31t-33 36q-11 11 -27 4t-28.5 -19t-31 -24t-32.5 -12q-7 0 -24 0.5t-25.5 0t-23.5 -2.5t-23 -7t-16.5 -13
t-12.5 -22t-4 -33q0 -49 68 -128q22 -26 56 -26zM760 505q-26 30 -67 30h-337q-38 0 -65 -27q-85 -90 -144 -196.5t-59 -188.5q0 -51 30 -104t84 -89.5t114 -36.5h392q60 0 114 36t84 89t30 105q0 85 -50 190.5t-126 191.5zM657 365l-68 -123q-4 -8 0.5 -16t13.5 -8h20
q6 0 11 -4.5t5 -11.5t-5 -11.5t-11 -4.5h-49q-7 0 -12 -5t-5 -12v-8q0 -7 5 -11.5t11 -4.5h50q6 0 11 -5t5 -11.5t-5 -11.5t-11 -5h-50q-6 0 -11 -4.5t-5 -11.5v-41q0 -7 -4.5 -12t-11.5 -5h-29q-7 0 -12 5t-5 12v41q0 7 -4.5 11.5t-11.5 4.5h-49q-6 0 -11 5t-5 11.5t5 11.5
t11 5h49q7 0 11.5 4.5t4.5 11.5v8q0 7 -5 12t-12 5h-48q-6 0 -11 4.5t-5 11.5t5 11.5t11 4.5h19q9 0 14 8t0 17l-67 122q-5 9 -0.5 16.5t14.5 7.5h32q10 0 14 -8l56 -110q4 -9 14 -9t15 9l55 110q4 8 14 8h33q9 0 13.5 -8t0.5 -16z" />
    <glyph glyph-name="uniE60C" unicode="&#xe60c;" horiz-adv-x="1026" 
d="M1012 123l-241 -238q-12 -13 -29.5 -13t-30.5 13l-699 701q-12 12 -12 29.5t13 29.5l241 239q12 12 29.5 12t30.5 -13l699 -700q12 -13 12 -30.5t-13 -29.5zM1003 173l-699 701q-9 8 -20.5 8t-19.5 -8l-241 -239q-9 -8 -9 -19.5t8 -19.5l699 -701q9 -9 20.5 -9t19.5 9
l241 238q9 8 9 19.5t-8 20.5zM847 144l-14 -14l-29 29l-105 -105q-20 -20 -39 -1l-29 29l11 17q14 -16 26 -28q10 -9 20 1l101 101l-76 77l14 14l76 -77l44 44l14 -15l-43 -43zM697 127l-21 4q10 35 14 83l19 -4q-4 -50 -12 -83zM565 144l-14 15l116 116q-25 -5 -55 -6
l11 19q69 6 131 39l7 -20q-25 -13 -56 -23zM618 374l-67 -66l-31 30l-48 -48q-10 -9 -2 -17l27 -27q5 -5 10 -3q8 1 28 20l9 -18q-28 -24 -39 -25q-9 0 -19 10l-34 34q-18 17 3 38l51 51l-30 30q-56 -47 -141 -10l5 21q75 -37 122 3l-33 33l66 67l74 -73q33 6 67 19l10 -19
q-30 -11 -62 -16zM496 469l-40 -40l94 -94l40 40zM528 466q10 31 14 57l19 -7q-5 -26 -14 -56zM250 646l-60 -60q-12 -13 0 -25l103 -103q6 -6 14 -7q11 0 46 32l9 -19q-40 -34 -54 -35q-13 0 -25 11l-111 111q-23 23 1 46l106 106l14 -14l-29 -29l110 -110l52 52l-135 135
l14 14l150 -149l-80 -80z" />
    <glyph glyph-name="uniE60D" unicode="&#xe60d;" 
d="M512 -128q-139 0 -257 68.5t-186.5 186.5t-68.5 257t68.5 257t186.5 186.5t257 68.5t257 -68.5t186.5 -186.5t68.5 -257t-68.5 -257t-186.5 -186.5t-257 -68.5zM498 324l-45 45q-22 23 -18 54l7 5q3 3 14.5 13.5t15.5 17t4 22.5t-10 39h-1l-55 96q-10 17 -29.5 22.5
t-36.5 -5.5l-26 -15l-6 -3l-24 -14q-6 -3 -13 -10.5t-12 -13.5l-4 -5q-12 -79 22.5 -167t109.5 -158q65 -62 142 -92.5t149 -26.5q32 4 47 30l32 56q10 18 5 37.5t-22 29.5l-96 55q-9 4 -18 6.5t-16.5 2.5t-13.5 -0.5t-11.5 -3.5t-9.5 -5t-8 -6t-5.5 -6t-5.5 -6l-3 -4l-5 -9
q-31 -4 -54 19zM560 528q-7 0 -11.5 -4.5t-4.5 -11.5t4.5 -11.5t11.5 -4.5h1q28 0 45.5 -17.5t17.5 -45.5v-1q0 -7 4.5 -11.5t11.5 -4.5t11.5 4.5t4.5 11.5v0q0 40 -28 68t-68 28v0zM768 464q0 72 -52 124t-123 52h-1q-7 0 -11.5 -4.5t-4.5 -11.5t4.5 -11.5t11.5 -4.5
q1 0 4 1q50 -2 94.5 -46t46.5 -95q-1 -3 -1 -4q0 -7 4.5 -11.5t11.5 -4.5t11.5 4.5t4.5 11.5v0zM577 289q10 17 29.5 22.5t36.5 -4.5l88 -54q7 -4 9 -10t-1.5 -14.5t-7 -15t-10.5 -17.5t-9 -15q-16 -19 -40 -22q-6 -2 -14.5 -2t-19 1.5t-18.5 3t-19.5 4t-15.5 2.5
q-16 3 -41 13t-33 15q-11 4 -21 9t-16 8.5t-16 12t-13 11.5t-16.5 16t-18.5 17q-112 108 -121 224q-3 1 0 38.5t16 47.5l27 16q4 4 10.5 7.5t17.5 6.5t21.5 -5.5t17.5 -28.5l37 -61q10 -17 5 -36.5t-23 -30.5l-8 -4q-4 -5 -5 -15t1 -18l1 -7q2 -22 23 -52l46 -46
q24 -20 46 -26q6 -1 11 -2q19 -2 41 5z" />
    <glyph glyph-name="uniE60E" unicode="&#xe60e;" 
d="M974 810v-517q0 -47 -23 -93t-61 -89.5t-86.5 -82t-98.5 -68.5q-50 -31 -96.5 -50.5t-82.5 -27.5l-11 -2l-10 2q-36 8 -84 28q-48 19 -100 50q-52 30 -101 69q-50 38 -89.5 81.5t-63.5 89.5t-24 93v517l38 6l429 80l436 -80zM510 821l-6 1l-367 -62v-327h373v388z
M880 433h-370v-465q35 8 77 25t83 40t79 51.5t67 60.5t46.5 67t17.5 70v151z" />
    <glyph glyph-name="uniE60F" unicode="&#xe60f;" 
d="M985 -56l-274 274q52 54 80.5 124t28.5 148q0 107 -53 198t-144 144t-198.5 53t-198.5 -53t-144 -144t-53 -198t53 -198t144 -144t199 -53q128 0 232 76l277 -278q11 -10 25.5 -10t25.5 10.5t11 25.5t-11 25zM425 159q-88 0 -162.5 43.5t-118 118t-43.5 162t43.5 162
t118 118t162.5 43.5t162 -43.5t117.5 -118t43.5 -162t-43.5 -162t-117.5 -118t-162 -43.5z" />
    <glyph glyph-name="uniE610" unicode="&#xe610;" 
d="M954 513h-66q-9 29 -23 55l47 47q18 18 18 43.5t-18 43.5l-90 90q-18 18 -43.5 18t-43.5 -18l-47 -46q-26 13 -55 23v65q0 26 -18 44t-43 18h-128q-25 0 -43 -18t-18 -44v-65q-29 -10 -56 -23l-46 46q-18 18 -43.5 18t-43.5 -18l-90 -90q-18 -18 -18 -43.5t18 -43.5
l47 -47q-14 -26 -23 -55h-67q-25 0 -43 -18t-18 -43v-128q0 -25 18 -43t43 -18h67q9 -29 23 -55l-47 -47q-18 -18 -18 -43.5t18 -43.5l90 -90q18 -18 43.5 -18t43.5 18l46 46q27 -13 56 -23v-65q0 -26 18 -44t43 -18h128q25 0 43 18t18 44v65q29 10 55 23l47 -46
q18 -18 43.5 -18t43.5 18l90 90q18 18 18 43.5t-18 43.5l-47 47q14 26 23 55h66q26 0 44 18t18 43v128q0 25 -18 43t-44 18zM957 324q0 -2 -3 -2h-88q-10 0 -18 -6t-11 -16q-11 -44 -34 -83q-11 -19 5 -35l62 -63q2 -2 0 -3l-90 -90q-1 -2 -3 0l-62 62q-16 16 -36 5
q-39 -23 -83 -35q-10 -2 -16 -10t-6 -19v-87q0 -3 -2 -3h-128q-2 0 -2 3v87q0 11 -6 19t-16 10q-44 12 -83 35q-7 4 -15 4q-12 0 -21 -9l-62 -62q-2 -2 -3 0l-90 90q-1 0 -1 1t1 2l62 63q16 16 5 35q-23 39 -34 83q-3 10 -11 16t-18 6h-89q-2 0 -2 2v128q0 2 2 2h89
q10 0 18 6t11 16q11 44 34 83q11 19 -5 36l-62 62q-1 1 -1 2t1 1l90 90q1 2 3 0l62 -62q16 -16 36 -4q39 22 83 34q10 3 16 10.5t6 18.5v87q0 3 2 3h128q2 0 2 -3v-87q0 -11 6 -18.5t16 -10.5q44 -12 83 -34q20 -12 36 4l62 62q2 2 3 0l90 -90q2 -1 0 -3l-62 -62
q-16 -17 -5 -36q23 -39 34 -83q3 -10 11 -16t18 -6h88q3 0 3 -2v-128zM514 598q-83 0 -142 -61t-59 -147t59 -147.5t142.5 -61.5t142.5 61.5t59 147.5t-59 147t-143 61zM514 241q-58 0 -100 43.5t-42 105t42 105.5t100.5 44t100.5 -44t42 -105.5t-42 -105t-101 -43.5z" />
    <glyph glyph-name="uniE611" unicode="&#xe611;" horiz-adv-x="1025" 
d="M717 -67q-27 -45 -78 -57.5t-95 16.5q-90 57 -175 111q-38 7 -65 35l-267 275q-37 38 -37 92t37 92l411 399h319q39 0 71 -22t47 -58q53 -28 67 -86l72 -306zM800 768q0 13 -9.5 22.5t-22.5 9.5h-288l-376 -372q-9 -9 -9 -22.5t9 -23.5l268 -275q9 -9 22 -9t22 9l384 373
v288zM896 548v-100l-410 -406q27 -17 53.5 -34t40.5 -26l13 -8q11 -7 23.5 -4t19.5 14l287 449q-12 55 -27 115zM640.5 704q26.5 0 45 -19t18.5 -45.5t-18.5 -45t-45 -18.5t-45.5 18.5t-19 45t19 45.5t45.5 19z" />
    <glyph glyph-name="uniE612" unicode="&#xe612;" 
d="M512 -128q-139 0 -257 68.5t-186.5 186.5t-68.5 257t68.5 257t186.5 186.5t257 68.5t257 -68.5t186.5 -186.5t68.5 -257t-68.5 -257t-186.5 -186.5t-257 -68.5zM733 631q-5 10 -14 9q-7 0 -11 -4l-476 -221q-6 -3 -8 -11v-1v-1t1 -4v-2q0 -1 1 -2q2 -6 8 -8.5t11 -0.5
l2 2l219 -18l30 -223q-1 -8 6 -14l1 -1l3 -2h1h1h1q9 -3 15 4v1h1h1v2l1 1v1l205 474q4 5 4 12q0 4 -3 7zM496 386l-1 1q-2 14 -16 13q-4 0 -7 -2l-171 13l386 179l-167 -387z" />
    <glyph glyph-name="uniE613" unicode="&#xe613;" 
d="M1024 424h-472v472h-80v-472h-472v-80h472v-472h80v472h472v80z" />
    <glyph glyph-name="uniE614" unicode="&#xe614;" 
d="M912 528q-236 226 -281 266q-61 54 -143 54q-12 0 -24 -1v9q71 40 152 40q120 0 209 -80q28 -25 74 -73t77 -84l32 -35zM868 492l-136 -128l-228 228l-232 -232l232 -232l224 224h264q-2 -98 -41 -187t-104.5 -153t-155 -102t-187.5 -38q-202 0 -345 143t-143 345
q0 174 109 307.5t275 169.5v-5q12 3 30.5 5t61.5 -5t68 -32q40 -39 308 -308z" />
    <glyph glyph-name="uniE615" unicode="&#xe615;" 
d="M516 -160q93 0 178 36.5t147 98t98 146.5t36 178.5t-36 178.5t-98 146.5t-147 98t-178 36.5t-178 -36.5t-147 -98t-98 -146.5t-36 -178.5t36 -178.5t98 -146.5t147 -98t178 -36.5zM516 721q114 0 211 -56.5t153.5 -153.5t56.5 -211t-56.5 -211.5t-153.5 -153.5t-211 -56
t-211 56t-153.5 153.5t-56.5 211.5t56.5 211t153.5 153.5t211 56.5zM255 430h512q8 0 13.5 5.5t5.5 13.5t-5.5 13.5t-13.5 5.5h-512q-8 0 -13.5 -5.5t-5.5 -13.5t5.5 -13.5t13.5 -5.5zM255 279h512q8 0 13.5 5.5t5.5 13.5t-5.5 13.5t-13.5 5.5h-512q-8 0 -13.5 -5.5
t-5.5 -13.5t5.5 -13.5t13.5 -5.5zM255 127h512q8 0 13.5 5.5t5.5 13.5t-5.5 14t-13.5 6h-512q-8 0 -13.5 -6t-5.5 -14t5.5 -13.5t13.5 -5.5z" />
    <glyph glyph-name="uniE616" unicode="&#xe616;" 
d="M934 -69h-844q-25 0 -43 17.5t-18 42.5q0 119 54.5 222t147.5 170q16 15 35.5 13.5t32 -11.5t34 -25.5t43 -30.5t58 -25.5t78.5 -10.5q43 0 78 8t57 19.5t40 25.5t30 25t23.5 18.5t25 6t29.5 -13.5q92 -67 146 -169.5t54 -221.5q0 -25 -18 -42.5t-43 -17.5zM512 353
q-112 0 -192 79.5t-80 192t80 192t192 79.5t192 -79.5t80 -192t-80 -192t-192 -79.5z" />
    <glyph glyph-name="uniE617" unicode="&#xe617;" 
d="M512 -128q-139 0 -257 68.5t-186.5 186.5t-68.5 257t68.5 257t186.5 186.5t257 68.5t257 -68.5t186.5 -186.5t68.5 -257t-68.5 -257t-186.5 -186.5t-257 -68.5zM512 798q-113 0 -208.5 -55t-150.5 -150.5t-55 -208.5t55 -208.5t150.5 -150.5t208.5 -55t208.5 55
t150.5 150.5t55 208.5t-55 208.5t-150.5 150.5t-208.5 55zM512 67q-30 0 -51.5 21.5t-21.5 51.5t21.5 51.5t51.5 21.5t51.5 -21.5t21.5 -51.5t-21.5 -51.5t-51.5 -21.5zM512 262q-30 0 -51.5 21.5t-21.5 51.5v293q0 30 21.5 51.5t51.5 21.5t51.5 -21.5t21.5 -51.5v-293
q0 -30 -21.5 -51.5t-51.5 -21.5z" />
    <glyph glyph-name="uniE618" unicode="&#xe618;" horiz-adv-x="1123" 
d="M850 767q-69 62 -156 95.5t-183 33.5q-104 0 -198.5 -40.5t-163 -109t-109 -163.5t-40.5 -199t40.5 -199t109 -163.5t163 -109t198.5 -40.5q158 0 286.5 88t187.5 230q-6 24 -23.5 31t-31.5 -9q-52 -127 -166 -204t-253 -77q-92 0 -175.5 36t-144 96.5t-96.5 144.5
t-36 176t36 176t96.5 144.5t144 96.5t175.5 36q172 0 300 -114q22 -5 33.5 7.5t5.5 36.5zM488 132l26 -25l28 23l556 485q12 11 13 27t-9.5 28.5t-27 13.5t-28.5 -10l-529 -461l-201 192q-11 11 -27.5 11t-28 -12t-11 -28.5t12.5 -27.5z" />
    <glyph glyph-name="uniE619" unicode="&#xe619;" horiz-adv-x="1027" 
d="M774 517q-28 -27 -67 -27t-66.5 27.5t-27.5 66.5t27 67l7 6q-57 1 -97.5 -39t-40.5 -96q0 -15 4 -30q0 -1 -1 -2v-1q1 -3 -0.5 -7.5t-3.5 -6.5v-1t-1 -1l-246 -226q-22 -22 -22 -54t22 -54t55 -22t55 22l225 245q0 1 1 1t1 1q2 1 6.5 2.5t7.5 1.5h1h1q16 -3 31 -3
q56 0 95.5 39.5t39.5 95.5v2zM316 155q-16 0 -27.5 11t-11.5 27t11.5 27.5t27.5 11.5t27.5 -11.5t11.5 -27.5t-11.5 -27t-27.5 -11zM301 595.5q6 5.5 6 13.5t-6 13l-27 27l-27 -27l27 -27q5 -5 13 -5t14 5.5zM509.5 896q-103.5 0 -198 -40.5t-162.5 -108.5t-108.5 -162.5
t-40.5 -198t40.5 -198t108.5 -162.5t162.5 -108.5t198 -40.5t198 40.5t162.5 108.5t108.5 162.5t40.5 198t-40.5 198t-108.5 162.5t-162.5 108.5t-198 40.5zM206 636l54 54q6 6 14 6t14 -6l40 -40q13 -13 16 -31.5t-5 -34.5l87 -86l-28 -27l-86 86q-13 -6 -25 -6
q-24 0 -41 17l-40 40q-6 6 -6 14t6 14zM796.5 99.5q-22.5 -22.5 -55 -22.5t-54.5 23l-109 108l28 28l108 -109q11 -11 27.5 -11t27.5 11q11 12 11 28t-11 27l-109 108l28 28l108 -109q23 -22 23 -54.5t-22.5 -55zM645 348q-8 0 -27 3l-219 -239q-35 -35 -83 -35t-82 34
t-34 82t34 82l240 220q-3 20 -3 27q0 72 51 123t123 51q24 0 48 -7q10 -3 13 -13.5t-5 -18.5l-33 -33q-17 -17 -17 -40t17 -39q15 -16 39 -16t39 16l34 33q8 8 18.5 5t13.5 -13q7 -24 7 -48q0 -72 -51 -123t-123 -51z" />
    <glyph glyph-name="uniE61A" unicode="&#xe61a;" 
d="M858 384l-14 32h178q2 -21 2 -32h-166zM825 464h192q2 -14 4 -32h-183zM805 512h202l7 -32h-196zM176 176l160 352l136 -333l152 333l144 -352h-288h-16h-288zM672 832l-160 -336l-144 336l-272 -672l112 -128h624l112 144l-20 48h74q-52 -155 -185 -253.5t-301 -98.5
q-139 0 -257 68.5t-186.5 186.5t-68.5 257t68.5 257t186.5 186.5t257 68.5q173 0 308.5 -103.5t182.5 -264.5h-205zM904 272h107q-3 -11 -9 -32h-85zM884 320h135q-1 -9 -5 -32h-116zM864 368h159q0 -7 -2 -32h-143z" />
    <glyph glyph-name="uniE61B" unicode="&#xe61b;" 
d="M512 896q-98 0 -181.5 -48.5t-132 -132t-48.5 -181.5q0 -94 35 -158q71 -125 311 -479l17 -25l16 25q227 336 304 468q41 71 41 169t-48.5 181.5t-132 132t-181.5 48.5zM798 385q-63 -108 -285 -441q-230 340 -293 452q-30 55 -30 138q0 87 43 161.5t117.5 117.5
t161.5 43t161.5 -43t117.5 -117.5t43 -161.5t-36 -149zM512 673q-63 0 -107.5 -44.5t-44.5 -107t44.5 -107t107.5 -44.5t107.5 44.5t44.5 107t-44.5 107t-107.5 44.5zM512 410q-46 0 -79 32.5t-33 79t33 79t79 32.5t79 -32.5t33 -79t-33 -79t-79 -32.5z" />
    <glyph glyph-name="uniE61C" unicode="&#xe61c;" 
d="M777 506h-238q-8 0 -13 -5.5t-5 -13t5 -12.5t13 -5h238q7 0 12.5 5t5.5 12.5t-5.5 13t-12.5 5.5v0zM777 416h-238q-8 0 -13 -5.5t-5 -13t5 -13t13 -5.5h238q7 0 12.5 5.5t5.5 13t-5.5 13t-12.5 5.5v0zM621 307q0 8 -5.5 13t-12.5 5h-64q-8 0 -13 -5t-5 -12.5t5 -13
t13 -5.5h64q7 0 12.5 5.5t5.5 12.5v0zM140 64q-15 2 -25.5 13.5t-10.5 27.5v484q0 17 11.5 28t28.5 11h734q17 0 29.5 -11t12.5 -28v-333q4 -2 19.5 -11t20.5 -15v385q0 21 -22.5 37t-46.5 16h-772q-22 0 -38.5 -20.5t-16.5 -44.5v-511q0 -23 14.5 -44t34.5 -23h391
q-1 2 -6 39h-358v0zM637 106q-8 0 -15 -7q-6 -6 -5.5 -15t6.5 -15l89 -84q7 -6 16.5 -5t15.5 8l120 166q5 7 3.5 15.5t-8 14t-15.5 4t-14 -8.5l-106 -146l-72 67q-6 6 -15 6zM748 300q-87 0 -149 -62.5t-62 -151.5t62 -151.5t149.5 -62.5t149.5 62.5t62 151.5t-62 151.5
t-150 62.5v0zM748 -88q-71 0 -121 51t-50 123t50 123t121 51t121.5 -51t50.5 -123t-50.5 -123t-121.5 -51v0zM748 -88zM500.5 240q-1.5 6 -6.5 9q-1 0 -3 2q-51 28 -65 58q20 20 31 44q36 29 36 57q-1 13 -9 23q10 66 -15 95q-11 13 -27 17q-12 23 -36 31q-12 3 -26 3
q-47 0 -102 -33q-28 -14 -37 -49q-3 -15 -2 -29l-1 -30q-8 -10 -9 -23q-2 -27 32 -58q21 -29 33 -40q1 -17 -15 -29q-7 -5 -41 -18q-38 -13 -59 -30.5t-23 -48.5v-1v-59q0 -6 4.5 -10.5t10.5 -4.5h286q6 0 10 4.5t4 10.5t-4 10t-10 4h-272v44q1 18 23 35q5 4 21 9q12 4 19 7
q36 14 49 25q15 12 21 28.5t5 23.5t-2 11q-1 5 -5 8q-7 5 -33 40l-2 2q-24 21 -23 35q0 4 3 7q5 4 5 11l2 36v2v11q0 7 5.5 20.5t17.5 19.5q1 0 1 1q16 10 39 18q28 11 49 11q9 0 17 -2q15 -5 22 -22q4 -9 14 -9q8 0 14 -8q18 -20 7 -78q-2 -9 6 -14q4 -3 4 -8
q0 -14 -28 -36q-3 -2 -5 -6q-8 -23 -31 -43q-7 -6 -5 -14q12 -43 84 -86q4 -2 8 -2q8 0 12 7q3 5 1.5 11z" />
    <glyph glyph-name="uniE61D" unicode="&#xe61d;" 
d="M512 742q-96 0 -177.5 -47.5t-129 -129t-47.5 -178t47.5 -178t129 -129t177.5 -47.5t177.5 47.5t129 129t47.5 178t-47.5 178t-129 129t-177.5 47.5zM512 60q-89 0 -164 44t-119 119.5t-44 164t44 164t119 119.5t164 44t164 -44t119 -119.5t44 -164t-44 -164t-119 -119.5
t-164 -44zM535 211q0 -10 -7 -17t-17 -7t-17.5 7t-7.5 17t7.5 17.5t17.5 7.5t17 -7.5t7 -17.5zM610 565q32 -36 25 -88q-2 -22 -13 -42.5t-20 -30.5t-26 -26q-18 -17 -26.5 -26.5t-16.5 -27.5t-8 -40q0 -6 -4 -10t-9.5 -4t-9.5 4t-4 10q0 27 10 50t20 34.5t29 29.5
q16 15 24 23.5t16.5 24.5t10.5 35q5 39 -18 66q-25 27 -76 27q-44 0 -69 -25q-14 -14 -21.5 -36.5t-8 -32.5t-0.5 -15q0 -6 -4 -10t-9.5 -4t-9.5 4t-4 9q0 8 0.5 20t10 39t27.5 45q33 34 88 34q64 0 96 -37zM610 565z" />
    <glyph glyph-name="uniE61E" unicode="&#xe61e;" 
d="M512 812q-139 0 -257 -68.5t-186.5 -186.5t-68.5 -257t68.5 -257t186.5 -186.5t257 -68.5t257 68.5t186.5 186.5t68.5 257t-68.5 257t-186.5 186.5t-257 68.5zM48 300q0 192 136 328t328 136q87 0 166.5 -31t142.5 -87h-1v-1l-645 -645q-5 -5 -7 -11q-57 63 -88.5 143
t-31.5 168zM512 -164q-172 0 -302 112q6 2 10 7l645 645h1q110 -130 110 -300q0 -192 -136 -328t-328 -136z" />
    <glyph glyph-name="uniE61F" unicode="&#xe61f;" 
d="M862 79q-47 -46 -101 -84t-93.5 -59t-79.5 -37.5t-54 -20.5t-22 -6q-8 2 -22 6t-54 20.5t-79.5 37.5t-93.5 59t-101 84q-35 33 -60.5 87.5t-39 110.5t-21 122.5t-9 117t0.5 102.5t3 69.5t2 27.5q110 34 238 72q56 17 115 44t90 46l30 18h2q12 -8 33.5 -20.5t83.5 -41.5
t119 -46l237 -72q1 -10 2.5 -27.5t3 -69.5t0 -102.5t-9 -117t-21 -122.5t-39 -110.5t-60.5 -87.5zM640 608l-128 -224l-128 224h-64l128 -224h-96v-64h128v-32h-128v-64h128v-96h64v96h128v64h-128v32h128v64h-96l128 224h-64zM512 -128h1h-1z" />
    <glyph glyph-name="uniE620" unicode="&#xe620;" 
d="M512 -128q-139 0 -257 68.5t-186.5 186.5t-68.5 257t68.5 257t186.5 186.5t257 68.5t257 -68.5t186.5 -186.5t68.5 -257t-68.5 -257t-186.5 -186.5t-257 -68.5zM512 800q-172 0 -294 -122t-122 -294t122 -294t294 -122t294 122t122 294t-122 294t-294 122zM466 208l-1 -1
q-14 -14 -34 -14t-34 14l-127 127q-14 14 -14 34t14 34t34 14t34 -14l94 -94l255 254q13 14 32.5 14t33.5 -14t14 -33.5t-14 -32.5z" />
    <glyph glyph-name="uniE621" unicode="&#xe621;" 
d="M284 638l57 59l399 -397l-399 -397l-57 59l336 338z" />
    <glyph glyph-name="uniE622" unicode="&#xe622;" 
d="M675 329h-127v127q0 15 -10.5 25.5t-25.5 10.5t-26 -10.5t-11 -25.5v-127h-127q-15 0 -25.5 -11t-10.5 -26t10.5 -25.5t25.5 -10.5h127v-127q0 -15 11 -26t26 -11t25.5 11t10.5 26v127h127q15 0 25.5 10.5t10.5 25.5t-10.5 26t-25.5 11zM511 747q-92 0 -176 -36t-145 -97
t-97 -145t-36 -176.5t36 -176.5t97 -144.5t145 -96.5t176.5 -36t176.5 36t144.5 96.5t96.5 144.5t36 176.5t-36 176.5t-96.5 145t-144.5 97t-177 36zM511 -105q-107 0 -198.5 53.5t-145 145t-53.5 199t53.5 199t145 145t199 53.5t199 -53.5t145 -145t53.5 -199t-53.5 -199
t-145 -145t-199.5 -53.5zM511 -105z" />
    <glyph glyph-name="uniE623" unicode="&#xe623;" 
d="M512 -128q-139 0 -257 68.5t-186.5 186.5t-68.5 257t68.5 257t186.5 186.5t257 68.5t257 -68.5t186.5 -186.5t68.5 -257t-68.5 -257t-186.5 -186.5t-257 -68.5zM512 816q-179 0 -305.5 -126.5t-126.5 -305.5t126.5 -305.5t305.5 -126.5t305.5 126.5t126.5 305.5
t-126.5 305.5t-305.5 126.5zM544 192h176v80h-176v240h176v64h-176v80h256v-224h-176v-80h176v-240h-256v80zM224 352h176v80h-176v224h256v-80h-176v-64h176v-240h-176v-80h176v-80h-256v240z" />
    <glyph glyph-name="uniE624" unicode="&#xe624;" 
d="M512 -128q-16 17 -41.5 47.5t-92 115.5t-117 161.5t-92 166.5t-41.5 149q0 159 112.5 271.5t271.5 112.5t271.5 -112.5t112.5 -271.5q0 -59 -39.5 -147t-96 -171t-113 -157t-95.5 -119zM512 832q-133 0 -226.5 -93.5t-93.5 -226.5q0 -44 33 -116.5t80 -144t94 -136.5
t80 -106.5t33 -40.5q13 16 34.5 42.5t77 101.5t97.5 140.5t76.5 140t34.5 119.5q0 133 -93.5 226.5t-226.5 93.5zM512 352q-66 0 -113 47t-47 113t47 113t113 47t113 -47t47 -113t-47 -113t-113 -47zM512 608q-40 0 -68 -28t-28 -68t28 -68t68 -28t68 28t28 68t-28 68
t-68 28z" />
    <glyph glyph-name="uniE625" unicode="&#xe625;" 
d="M740 638l-57 59l-399 -397l399 -397l57 59l-336 338z" />
    <glyph glyph-name="uniE626" unicode="&#xe626;" 
d="M512 896q-104 0 -199 -40.5t-163.5 -109t-109 -163.5t-40.5 -199t40.5 -199t109 -163.5t163.5 -109t199 -40.5t199 40.5t163.5 109t109 163.5t40.5 199t-40.5 199t-109 163.5t-163.5 109t-199 40.5zM512 -59q-90 0 -172 35t-141.5 94.5t-94.5 141.5t-35 172t35 172
t94.5 141.5t141.5 94.5t172 35t172 -35t141.5 -94.5t94.5 -141.5t35 -172t-35 -172t-94.5 -141.5t-141.5 -94.5t-172 -35zM708 496l-198 -198l-199 198q-10 10 -24 10t-24 -10t-10 -24t10 -24l222 -223q10 -10 25 -10q14 0 24 10l222 223q10 10 10 24t-10 24t-24 10t-24 -10
z" />
    <glyph glyph-name="uniE627" unicode="&#xe627;" 
d="M926 458q-36 86 -102.5 152.5t-152.5 102.5q-90 38 -187.5 38t-186.5 -38q-86 -36 -152.5 -102.5t-103.5 -152.5q-37 -90 -37 -187.5t37 -186.5q37 -86 103.5 -152.5t152.5 -103.5q89 -37 186.5 -37t187.5 37q86 37 152.5 103.5t102.5 152.5q38 89 38 186.5t-38 187.5z
M483.5 -143q-112.5 0 -207.5 55.5t-150.5 150.5t-55.5 207.5t55.5 208t150.5 151t207.5 55.5t208 -55.5t151 -151t55.5 -208t-55.5 -207.5t-151 -150.5t-208 -55.5zM633 472l-154 -154l-154 154q-10 10 -24 10t-24 -10t-10 -24.5t10 -24.5l154 -153l-154 -155
q-10 -10 -10 -24t10 -24t24.5 -10t24.5 10l153 154l155 -154q10 -10 24 -10t24 10v1q10 10 10 24t-10 24l-154 154l154 154q10 10 10 24t-10.5 24t-24.5 10t-24 -10z" />
    <glyph glyph-name="uniE628" unicode="&#xe628;" 
d="M790 625l56 56l-31 30l-60 -59q-100 69 -221 75v125h72v44h-188v-44h72v-124q-111 -6 -204.5 -63.5t-148 -154t-54.5 -209.5q0 -116 58 -215t156.5 -156.5t214.5 -57.5q87 0 166 34t137 92t92 137.5t34 165.5q0 96 -40 180t-111 144zM512 -85q-104 0 -193 51t-141 139.5
t-52 193.5t52 194t141 140.5t193 51.5t193 -51t141 -139.5t52 -193.5t-52 -194t-141 -140.5t-193 -51.5zM490 650h44v-94h-44v94zM490 46h44v-94h-44v94zM767 323h94v-44h-94v44zM163 323h94v-44h-94v44zM335 509l192 -192l-31 -31l-192 192z" />
    <glyph glyph-name="uniE629" unicode="&#xe629;" 
d="M18 56q-18 4 -18 22q0 73 24.5 136.5t62 107t89.5 79t100 56.5t102 37t86 22t61 10v164q0 14 12 20q11 6 22 -1l455 -307q10 -6 10 -18t-10 -18l-455 -307q-11 -7 -22.5 -1t-11.5 20v177q-106 -1 -180 -10q-67 -8 -122.5 -29t-86 -42.5t-54.5 -48.5t-30 -37.5t-10 -18.5
q-6 -13 -20 -13h-4z" />
    <glyph glyph-name="uniE62A" unicode="&#xe62a;" 
d="M477 766q13 0 22 -7t9 -16v-905q0 -9 -9 -15.5t-22 -6.5q-12 0 -21 6.5t-9 15.5v905q0 9 9 16t21 7z" />
    <glyph glyph-name="uniE62C" unicode="&#xe62c;" 
d="M512 -19q107 0 198.5 53t144.5 144.5t53 198.5t-53 198t-144.5 144t-198.5 53t-198.5 -53t-144.5 -144t-53 -198t53 -198.5t144.5 -144.5t198.5 -53zM512 723q94 0 173.5 -46.5t126 -126t46.5 -173.5t-46.5 -174t-126 -126t-173.5 -46t-173.5 46t-126 126t-46.5 174
t46.5 173.5t126 126t173.5 46.5zM512 618q59 0 101 -41.5t42 -100t-42 -100t-101 -41.5t-101 41.5t-42 100t42 100t101 41.5zM512 375q42 0 72 29.5t30 71.5t-30 71.5t-72 29.5t-72 -29.5t-30 -71.5t30 -71.5t72 -29.5zM512 375q84 0 144 -59t60 -143h-41q0 67 -47.5 114.5
t-115.5 47.5t-115.5 -47.5t-47.5 -114.5h-41q0 84 60 143t144 59z" />
  </font>
</defs>
</svg>
